PathFileType	4	(X/Y/Z)	./resultDataOpenSim/trcMotMarkerGrf/sub10/qtm-13-07.trc
DataRate	CameraRate	NumFrames	NumMarkers	Units	OrigDataRate	OrigDataStartFrame	OrigNumFrames
250.000000	250.000000	12	24	m	250.000000	433	494
Frame#	Time	L.Toe.Tip			R.Toe.Tip			L.Ankle.Lat			R.Ankle.Lat			L.Ankle.Med			R.Ankle.Med			L.Heel			R.Heel			L.Knee.Lat			R.Knee.Lat			L.Knee.Med			R.Knee.Med			L.Thigh.Upper			R.Thigh.Upper			L.ASIS			R.ASIS			V.Sacral			L.Acromium			R.Acromium			C7			L.Elbow			R.Elbow			L.Wrist.Lat			R.Wrist.Lat
		X1	Y1	Z1	X2	Y2	Z2	X3	Y3	Z3	X4	Y4	Z4	X5	Y5	Z5	X6	Y6	Z6	X7	Y7	Z7	X8	Y8	Z8	X9	Y9	Z9	X10	Y10	Z10	X11	Y11	Z11	X12	Y12	Z12	X13	Y13	Z13	X14	Y14	Z14	X15	Y15	Z15	X16	Y16	Z16	X17	Y17	Z17	X18	Y18	Z18	X19	Y19	Z19	X20	Y20	Z20	X21	Y21	Z21	X22	Y22	Z22	X23	Y23	Z23	X24	Y24	Z24

433	1.728	1.6234279	0.10249862	-0.06487404	0.88863106	0.038579756	0.080093348	1.4929294	0.071995445	-0.087089462	0.75977628	0.087458055	0.11859612	1.4995757	0.10087602	-0.0077201221	0.78460889	0.10661088	0.033827415	1.4473997	0.022709819	-0.037737603	0.70151921	0.07898526	0.072801348	1.3575035	0.44154213	-0.11840221	0.98105027	0.42469034	0.15053337	1.3818288	0.4244461	0.00080015026	1.0054504	0.42180351	0.023817027	1.2007172	0.78970547	-0.17579097	1.0877891	0.82380824	0.19992076	1.2393544	0.9016613	-0.096823501	1.1846005	0.90675315	0.15144617	1.0129326	0.90918951	-0.037943029	1.1011257	1.374046	-0.14624852	1.106352	1.3626276	0.18109218	1.011779	1.3901357	0.015880242	0.98574775	1.0530566	-0.19345946	1.2163331	1.0262529	0.259809	1.05629	0.82917311	-0.25349854	1.4634736	0.99967167	0.24112775
434	1.732	1.6271	0.09790137	-0.065949333	0.88900782	0.038613257	0.080170413	1.4955714	0.070219194	-0.087380737	0.76141599	0.089559762	0.11892013	1.5024894	0.098960938	-0.0075982226	0.78621877	0.10842089	0.034179759	1.4485661	0.022534281	-0.037607394	0.70278407	0.082001765	0.073166606	1.3638746	0.44085125	-0.11889163	0.98572258	0.42460028	0.15029476	1.3884172	0.42414692	0.00022673658	1.010253	0.42144979	0.023632588	1.2076218	0.78954249	-0.17620174	1.0939288	0.8231911	0.19929529	1.2462872	0.90144907	-0.096957573	1.1911462	0.90603197	0.15126153	1.0190882	0.90895219	-0.040136588	1.1067796	1.3734639	-0.14724247	1.1120389	1.3622865	0.18012398	1.0174613	1.3893641	0.014916479	0.99128375	1.0525492	-0.19420506	1.2218862	1.0255719	0.25750605	1.0616321	0.82863976	-0.25459251	1.4689652	0.99898404	0.23948832
435	1.736	1.6309945	0.09252776	-0.067084751	0.88940929	0.038635128	0.080238651	1.4981133	0.068739912	-0.087532094	0.76315388	0.091763344	0.119263	1.5056152	0.097346363	-0.0073697083	0.78798002	0.11028518	0.034486307	1.4496864	0.022675325	-0.037197968	0.70417728	0.085124357	0.073492244	1.3701179	0.4401299	-0.11939574	0.99050822	0.4245226	0.15003981	1.3948822	0.42372226	-0.00036336983	1.0151821	0.42109798	0.023437427	1.2146337	0.78940237	-0.17661346	1.100245	0.82257471	0.19864531	1.2532079	0.90131311	-0.097109225	1.1977982	0.90533028	0.15104879	1.0253741	0.90871083	-0.041790079	1.1124717	1.3729079	-0.14824665	1.1177293	1.3619738	0.17914067	1.0231315	1.3886262	0.013920952	0.99687371	1.0520496	-0.19498834	1.2274936	1.0248718	0.25502215	1.0670575	0.82812458	-0.25568827	1.4743388	0.99823178	0.23785608
436	1.74	1.6349735	0.086611267	-0.068105125	0.88982861	0.0386462	0.080280869	1.500585	0.067696223	-0.087483049	0.76494625	0.094083258	0.11963617	1.5091075	0.09612391	-0.0070816288	0.7898755	0.11220282	0.034774963	1.450812	0.023315034	-0.036595008	0.70571126	0.088367566	0.073790619	1.3762234	0.4394243	-0.11990561	0.9954098	0.42445267	0.1497555	1.4012419	0.42318422	-0.00093815432	1.0202449	0.42074394	0.023215726	1.2217564	0.78930788	-0.17704704	1.1067338	0.82195629	0.19796572	1.2600904	0.90124844	-0.09727329	1.2045519	0.90463905	0.15080427	1.0317648	0.90850852	-0.042969659	1.1181976	1.372383	-0.14926923	1.1234292	1.3617006	0.17814496	1.0287751	1.3879319	0.012894031	1.0025244	1.05156	-0.19579618	1.2331152	1.0241729	0.25238178	1.0725604	0.82762649	-0.25679592	1.4795942	0.99741555	0.23623005
437	1.744	1.6388451	0.080656335	-0.069019133	0.89026803	0.03865064	0.080293558	1.5030737	0.067080282	-0.087317573	0.76679289	0.096501533	0.12001159	1.5129355	0.095253715	-0.0068194391	0.79189229	0.11417628	0.035073797	1.4519754	0.024450791	-0.035999449	0.70739569	0.091740209	0.074076977	1.3822074	0.43880476	-0.12040236	1.000433	0.42439257	0.14942992	1.4075212	0.42258979	-0.0014776906	1.0254535	0.42038205	0.022953348	1.2289967	0.78928985	-0.1775192	1.1134196	0.82129544	0.19727543	1.266917	0.9012482	-0.097457668	1.2114134	0.90395802	0.1505155	1.0382022	0.90838634	-0.043907143	1.1239492	1.3719011	-0.15032163	1.1291417	1.3614974	0.17714711	1.0343878	1.3872973	0.011834989	1.0082447	1.0510894	-0.19662121	1.2385954	1.0235136	0.24970762	1.0781378	0.82714314	-0.25791661	1.4847368	0.99653485	0.23461158
438	1.748	1.6423702	0.07512848	-0.069911747	0.89073678	0.038652744	0.080288237	1.5056093	0.066720576	-0.087175685	0.76873634	0.098992037	0.12036047	1.5168412	0.094582492	-0.006661549	0.79403332	0.11620724	0.035396195	1.4531817	0.025863646	-0.035586867	0.70923934	0.095246012	0.074361975	1.3881239	0.43835273	-0.120875	1.0055877	0.42434442	0.14905537	1.4137667	0.42203763	-0.0019893772	1.0308226	0.4200071	0.022645306	1.2363593	0.78938708	-0.17803648	1.1204755	0.82050177	0.19661939	1.2736813	0.90130526	-0.097680364	1.2183902	0.90329199	0.15016431	1.0446719	0.90835343	-0.044727734	1.1297231	1.3714679	-0.15140371	1.1348746	1.3613898	0.17615663	1.0399837	1.3867402	0.010741112	1.0140424	1.0506476	-0.19746377	1.2438173	1.0229076	0.24711209	1.0837925	0.82667289	-0.25904333	1.4897698	0.99558979	0.23300228
439	1.752	1.6453574	0.0702017	-0.070739713	0.89124285	0.038651936	0.080282317	1.5081111	0.066392643	-0.087157062	0.77081515	0.10154256	0.12067549	1.5204899	0.0939498	-0.0066419104	0.79631803	0.11829488	0.035738428	1.4544042	0.027291566	-0.03542328	0.71125544	0.098881871	0.074637706	1.3940549	0.43813865	-0.12133911	1.010889	0.42431156	0.14862904	1.4200408	0.42164707	-0.0024997074	1.0363621	0.41961453	0.022295415	1.2438389	0.78964086	-0.17858999	1.1281741	0.81949626	0.19605433	1.280385	0.90141693	-0.09795657	1.2254731	0.9026391	0.14973227	1.0511896	0.90840073	-0.045443531	1.1355228	1.3710841	-0.15250327	1.1406436	1.3613838	0.17517137	1.0455929	1.3862727	0.0096121315	1.0199217	1.0502393	-0.19832878	1.2488063	1.0223419	0.24460742	1.0895287	0.8262199	-0.26017264	1.4946915	0.99458372	0.23140022
440	1.756	1.6477912	0.065737372	-0.071332305	0.89178889	0.038641355	0.080294531	1.5104623	0.06596437	-0.087289573	0.77298741	0.1041713	0.12094948	1.5237056	0.093290169	-0.0067491721	0.79877607	0.12043806	0.036086983	1.4556053	0.028588945	-0.035497123	0.71345969	0.10263941	0.074870869	1.4000811	0.43820292	-0.12183218	1.0163511	0.42430325	0.1481538	1.4263831	0.42151626	-0.0030267965	1.0420788	0.41920337	0.021912226	1.2514239	0.79008491	-0.17915626	1.1365117	0.81831538	0.19559499	1.2870355	0.90159012	-0.098291525	1.2326431	0.90199062	0.14920362	1.0577693	0.90851775	-0.04603122	1.1413491	1.3707553	-0.15360694	1.1464554	1.3614765	0.17418378	1.0512475	1.3858975	0.0084528212	1.0258842	1.0498678	-0.19921729	1.2536536	1.0218094	0.24214233	1.0953468	0.82579336	-0.26130709	1.4994979	0.99352017	0.22980151
441	1.76	1.6498265	0.061493897	-0.071529236	0.89236904	0.038611787	0.080343861	1.5126081	0.06544876	-0.087538023	0.77514067	0.10692384	0.12116707	1.5265454	0.092646436	-0.0069393851	0.80144282	0.1226379	0.036424634	1.4567538	0.02975223	-0.035801919	0.7158691	0.10651105	0.075013376	1.4062556	0.43855127	-0.12239326	1.0219757	0.4243266	0.14764093	1.4327735	0.4216846	-0.0035630669	1.0479813	0.41878061	0.021509088	1.2591087	0.79074087	-0.17971202	1.1449956	0.81712363	0.19517495	1.2936454	0.90183961	-0.098682521	1.2398827	0.90134868	0.14857661	1.0644136	0.90869787	-0.046474656	1.1471922	1.3704924	-0.15470504	1.152302	1.361665	0.17319341	1.0569711	1.3856129	0.0072730325	1.031929	1.0495404	-0.20012471	1.2584075	1.0213169	0.23967325	1.101248	0.82540417	-0.26243996	1.5041866	0.99239915	0.22820432
442	1.764	1.6516646	0.057380991	-0.071249809	0.89297276	0.03855931	0.080431705	1.5145812	0.064939189	-0.087825163	0.77722211	0.10983533	0.12131747	1.5291314	0.092093566	-0.0071423604	0.80435485	0.12489567	0.03673614	1.4578327	0.030843143	-0.036360737	0.71850671	0.11049154	0.075022978	1.4125995	0.4391606	-0.12304366	1.0277571	0.42437703	0.14710863	1.4391089	0.42212754	-0.0040856322	1.0540822	0.41835938	0.021104966	1.2668914	0.79161932	-0.18025588	1.1530718	0.81607451	0.19470548	1.3002327	0.90217764	-0.099122963	1.2471829	0.90073388	0.14787071	1.0711175	0.90893748	-0.046771446	1.1530369	1.3703034	-0.15578953	1.158169	1.361945	0.17220962	1.0627745	1.3854179	0.0060885931	1.0380541	1.0492675	-0.20104845	1.2630566	1.0208694	0.23718827	1.1072409	0.82506644	-0.26354812	1.5087582	0.99121875	0.22660908
443	1.768	1.653463	0.053568969	-0.070482815	0.89359359	0.038487205	0.080519117	1.5164587	0.064513659	-0.088052027	0.77933007	0.11288288	0.12138424	1.5314717	0.091657525	-0.0072722552	0.80753783	0.12720325	0.037015417	1.4588412	0.031890367	-0.03714379	0.72140047	0.11457521	0.074874564	1.4191115	0.43998376	-0.12377728	1.0337048	0.42444181	0.14657379	1.4451784	0.42277835	-0.0045777965	1.060398	0.41795031	0.020720716	1.2747531	0.79272116	-0.18081324	1.1606284	0.81519418	0.19415956	1.3068157	0.90260825	-0.099603933	1.25457	0.90016351	0.14709442	1.0778743	0.90923396	-0.04692661	1.1588724	1.3701901	-0.1568571	1.1640455	1.362309	0.17124024	1.0686506	1.38531	0.0049209932	1.0442585	1.0490564	-0.20198471	1.2675764	1.0204634	0.2346982	1.1133341	0.82479664	-0.26461419	1.5132133	0.98997866	0.22501814
444	1.772	1.6553245	0.050391866	-0.069305925	0.89422542	0.038398926	0.080545761	1.5182992	0.064197307	-0.088125394	0.78162613	0.11599375	0.12131677	1.5334775	0.091304791	-0.0072516421	0.81099578	0.12953921	0.037263561	1.4597815	0.032851087	-0.037987017	0.72457505	0.118754	0.074555716	1.4257677	0.44095671	-0.12455878	1.0398522	0.42451006	0.14604613	1.450717	0.42355971	-0.0050345012	1.0669489	0.41755204	0.020374479	1.2826481	0.79404154	-0.18141292	1.1679037	0.81441971	0.19356585	1.313404	0.90313231	-0.10011166	1.2621137	0.89963266	0.14621272	1.0846778	0.90958467	-0.04694667	1.1646925	1.370149	-0.1579122	1.1699326	1.3627467	0.17027867	1.0745755	1.3852766	0.0037905573	1.0505424	1.0489059	-0.20291776	1.2719679	1.0200912	0.23221748	1.1195235	0.82460403	-0.26565066	1.5175489	0.98868046	0.22343596
